<svg xmlns="http://www.w3.org/2000/svg" viewBox="0 0 512 512" role="img" aria-label="Angielska Przygoda">
  <rect width="512" height="512" rx="108" fill="#fff3d5"/>
  <circle cx="100" cy="112" r="18" fill="#ffc93c"/>
  <circle cx="420" cy="150" r="14" fill="#1fb8a6"/>
  <path d="M385 345l8 17 18 3-13 13 3 18-16-8-16 8 3-18-13-13 18-3z" fill="#7c5cfc"/>
  <ellipse cx="256" cy="210" rx="112" ry="128" fill="#ff6b4a" stroke="#2b2118" stroke-width="18"/>
  <path d="M236 335h40l21 39h-82z" fill="#ff6b4a" stroke="#2b2118" stroke-width="16" stroke-linejoin="round"/>
  <path d="M259 372c-5 30 25 37 5 65-11 15-30 5-21-9" fill="none" stroke="#2b2118" stroke-width="13" stroke-linecap="round"/>
  <ellipse cx="220" cy="163" rx="25" ry="39" transform="rotate(28 220 163)" fill="#fff" opacity=".88"/>
</svg>